<svg width="48" height="48" viewBox="0 0 48 48" fill="none" xmlns="http://www.w3.org/2000/svg">
<rect width="48" height="48" fill="black"/>
<path fill-rule="evenodd" clip-rule="evenodd" d="M7.8108 14.4038C6.68105 16.959 6.75021 20.0288 7.90369 22.1242L7.9084 22.1328C9.81393 25.6759 13.7917 29.4178 17.3993 32.3251C19.1857 33.7648 20.8495 34.975 22.0667 35.8251C22.6687 36.2456 23.1605 36.5773 23.5027 36.8046C23.8438 36.5773 24.3336 36.2459 24.9331 35.8259C26.1469 34.9757 27.8067 33.7654 29.5904 32.3256C33.192 29.4185 37.1723 25.6752 39.1012 22.1287L39.1035 22.1244C40.2551 20.0313 40.3152 16.9623 39.1797 14.4053C38.0673 11.9006 35.8662 10.0005 32.5412 10C29.3651 10.0004 27.4331 11.3581 26.2445 12.7977C25.0271 14.2721 24.5723 15.8613 24.4756 16.2505L22.535 16.252C22.4372 15.8611 21.9823 14.2719 20.7652 12.7976C19.5765 11.3578 17.6444 10 14.4675 10C11.1172 10 8.91694 11.902 7.8108 14.4038ZM32.5427 10V8ZM32.5427 8C36.7925 8.00114 39.6331 10.4986 41.0075 13.5936C42.3588 16.6364 42.3507 20.3695 40.857 23.0864C38.7238 27.0072 34.4669 30.9597 30.8466 33.8819C29.0191 35.357 27.3214 36.5948 26.0806 37.464C25.4598 37.8988 24.9524 38.2421 24.5992 38.4772C24.4226 38.5948 24.2844 38.6855 24.1899 38.7471C24.1426 38.7779 24.1061 38.8015 24.0813 38.8175L24.0526 38.8359L24.0428 38.8422C24.0428 38.8422 24.0418 38.8429 23.5037 38C22.9669 38.8438 22.9666 38.8435 22.9666 38.8435L22.956 38.8368L22.9273 38.8184C22.9023 38.8023 22.8658 38.7788 22.8183 38.748C22.7234 38.6863 22.5847 38.5957 22.4075 38.4781C22.0531 38.2429 21.5441 37.8996 20.9215 37.4648C19.677 36.5955 17.9749 35.3576 16.1443 33.8824C12.5193 30.961 8.26086 27.0079 6.14921 23.0843C4.65717 20.3699 4.63579 16.6389 5.98161 13.595C7.35177 10.4961 10.1953 8 14.4675 8C18.32 8 20.792 9.68866 22.3075 11.5244C22.8051 12.1271 23.1977 12.7427 23.5048 13.3146C23.8119 12.7426 24.2045 12.1271 24.7022 11.5243C26.2175 9.6891 29.1492 8.01076 33 8.0099M23.5037 38L22.9666 38.8435L23.5046 39.1858L24.0418 38.8429L23.5037 38Z" fill="white"/>
</svg>
