<svg xmlns="http://www.w3.org/2000/svg" width="158.928" height="32.032" viewBox="0 0 158.928 32.032">
  <path id="Path_2" data-name="Path 2" d="M11.748-23.056c-6.38,0-9.46,3.432-9.68,7.7H8.052c.088-2.112,1.408-3.388,3.7-3.388,2.156,0,3.652,1.144,3.652,3.96v.792c-1.408.088-3.916.352-5.588.616C3.344-12.364,1.144-9.9,1.144-6.248,1.144-2.376,4,.528,8.756.528a8.4,8.4,0,0,0,7.26-3.52H16.1A12.757,12.757,0,0,0,16.412,0h5.544a23.457,23.457,0,0,1-.616-6.116v-8.1C21.34-20.064,18.084-23.056,11.748-23.056ZM15.4-9.416c0,2.024-.22,3.212-1.276,4.268A5.036,5.036,0,0,1,10.6-3.872c-2.156,0-3.3-1.144-3.3-2.816,0-1.8,1.056-2.64,3.608-3.08,1.32-.22,3.168-.4,4.488-.484ZM33.22-19.668v-11.66H27.06V0h5.984V-2.948h.088A7.37,7.37,0,0,0,39.556.572c5.632,0,9.284-4.62,9.284-11.748s-3.608-11.748-9.2-11.748a7.439,7.439,0,0,0-6.336,3.256Zm4.356,1.452c2.948,0,4.84,2.772,4.84,7.04s-1.892,7.04-4.84,7.04c-2.772,0-4.664-2.6-4.664-7.04S34.8-18.216,37.576-18.216ZM73.7,0V-31.328H67.54v11.66h-.088a7.439,7.439,0,0,0-6.336-3.256c-5.588,0-9.2,4.62-9.2,11.748S55.572.572,61.2.572a7.37,7.37,0,0,0,6.424-3.52h.088V0ZM63.184-18.216c2.772,0,4.664,2.6,4.664,7.04s-1.892,7.04-4.664,7.04c-2.948,0-4.84-2.772-4.84-7.04S60.236-18.216,63.184-18.216Zm33.132.88v-5.016H78.364v4.84H88.88v.088L77.924-5.016V0H96.756V-4.84H85.36v-.088ZM107.052,0V-7.348h-6.776V0ZM132.66,0V-31.328H126.5v11.66h-.088a7.439,7.439,0,0,0-6.336-3.256c-5.588,0-9.2,4.62-9.2,11.748S114.532.572,120.164.572a7.37,7.37,0,0,0,6.424-3.52h.088V0ZM122.144-18.216c2.772,0,4.664,2.6,4.664,7.04s-1.892,7.04-4.664,7.04c-2.948,0-4.84-2.772-4.84-7.04S119.2-18.216,122.144-18.216Zm26.488-4.84c-7,0-11.44,4.62-11.44,11.88S141.636.7,148.632.7s11.44-4.62,11.44-11.88S155.628-23.056,148.632-23.056Zm0,4.752c3.036,0,4.972,2.772,4.972,7.128s-1.936,7.128-4.972,7.128-4.972-2.772-4.972-7.128S145.6-18.3,148.632-18.3Z" transform="translate(-1.144 31.328)" fill="#fff"/>
</svg>
