<svg xmlns="http://www.w3.org/2000/svg" width="308.964" height="109.237" viewBox="0 0 308.964 109.237"><g transform="translate(-139.985 -478)"><g transform="translate(139.985 478)"><path d="M0,.588V7.965H11.764V51.859H19.6V7.965H31.36V.588Z" transform="translate(0 2.41)" fill="#fff"/><path d="M10.516.588V51.859H38.8V44.482H18.352V28.341H38.187V20.953H18.352V7.965H38.8V.588Z" transform="translate(43.132 2.41)" fill="#fff"/><path d="M30.208.587c6.229,0,10.224.77,13.53,3,5.612,3.765,6.076,9.836,6.076,12.065a14.06,14.06,0,0,1-11.382,14.3L54.421,51.859H44.967L30.285,30.876H28.9V51.859H21.061V.587ZM28.9,24.111h2.459c2.153,0,10.918-.23,10.918-8.377,0-7.229-6.841-7.918-10.688-7.918H28.9Z" transform="translate(86.385 2.408)" fill="#fff"/><path d="M41.265.587c6.229,0,10.224.77,13.53,3,5.612,3.765,6.076,9.836,6.076,12.065a14.06,14.06,0,0,1-11.382,14.3L65.478,51.859H56.024L41.342,30.876H39.959V51.859H32.118V.587ZM39.959,24.111h2.459c2.153,0,10.918-.23,10.918-8.377,0-7.229-6.841-7.918-10.688-7.918H39.959Z" transform="translate(131.737 2.408)" fill="#fff"/><path d="M78.008,41.89H56.1L50.49,54.266H42.031L67.555,0,91.844,54.266H83.39Zm-3.153-7.377L67.243,17.142,59.326,34.513Z" transform="translate(172.397)" fill="#fff"/><path d="M63.913.588V44.482H78.978v7.377H56.071V.588Z" transform="translate(229.986 2.41)" fill="#fff"/></g><path d="M3.12-26.013V0H7.1V-10.569H8.892A9.39,9.39,0,0,0,15.249-12.6a7.285,7.285,0,0,0,2.535-5.694,7.529,7.529,0,0,0-3.237-6.318,10.166,10.166,0,0,0-5.694-1.4ZM7.1-22.347H8.853c4.524,0,5.109,2.574,5.109,4.017,0,2.418-1.638,4.095-5.07,4.095H7.1Zm24.531,7.839a5.986,5.986,0,0,0-4.875-2.34c-4.329,0-8,3.276-8,8.619,0,4.524,2.886,8.736,7.956,8.736a6.305,6.305,0,0,0,4.914-2.223V0h3.822V-16.419H31.629Zm-4.407,1.092c2.418,0,4.641,1.716,4.641,5.3,0,3.432-2.223,5.187-4.641,5.187-2.769,0-4.563-2.379-4.563-5.226C22.659-11.076,24.453-13.416,27.222-13.416ZM40.287,0h3.822V-8.5a5.29,5.29,0,0,1,1.053-3.783,2.978,2.978,0,0,1,2.379-.9,3.46,3.46,0,0,1,1.95.585l1.56-3.471a5.67,5.67,0,0,0-3-.78,4.414,4.414,0,0,0-2.34.546,6.61,6.61,0,0,0-1.6,1.365v-1.482H40.287ZM62.361-12.909v-3.51H58.227v-6.2a2.711,2.711,0,0,1,.624-1.95,2.218,2.218,0,0,1,1.677-.624,3.3,3.3,0,0,1,1.833.585v-3.783A6.11,6.11,0,0,0,59.9-28.86a5.144,5.144,0,0,0-3.9,1.6,7.275,7.275,0,0,0-1.6,5.148v5.694H52.767v3.51H54.4V0h3.822V-12.909Zm2.184-3.51V-6.9c0,2.106.234,3.861,1.755,5.382A7.213,7.213,0,0,0,71.487.507,7.488,7.488,0,0,0,76.83-1.521C78.351-3.042,78.585-4.8,78.585-6.9v-9.516H74.763v9.4a4.727,4.727,0,0,1-.7,2.964,3.106,3.106,0,0,1-2.5,1.131,3.106,3.106,0,0,1-2.5-1.131,4.727,4.727,0,0,1-.7-2.964v-9.4ZM83.421,0h3.822V-8.463a6.663,6.663,0,0,1,.741-3.744,2.823,2.823,0,0,1,2.262-1.209,2.164,2.164,0,0,1,2.184,1.443,7.616,7.616,0,0,1,.351,2.925V0H96.6V-8.463a6.663,6.663,0,0,1,.741-3.744,2.823,2.823,0,0,1,2.262-1.209,2.164,2.164,0,0,1,2.184,1.443,7.615,7.615,0,0,1,.351,2.925V0h3.822V-10.14a8.088,8.088,0,0,0-.858-4.134,5.258,5.258,0,0,0-4.68-2.574A5.815,5.815,0,0,0,95.55-14.43,4.822,4.822,0,0,0,91.3-16.848a5.06,5.06,0,0,0-4.056,1.95v-1.521H83.421Z" transform="translate(239.46 586.73)" fill="#fff" opacity="0.5"/></g></svg>