<?xml version="1.0" encoding="utf-8"?>
<!-- Generator: Adobe Illustrator 26.3.1, SVG Export Plug-In . SVG Version: 6.00 Build 0)  -->
<svg version="1.1" id="Layer_1" xmlns="http://www.w3.org/2000/svg" xmlns:xlink="http://www.w3.org/1999/xlink" x="0px" y="0px"
	 viewBox="0 0 60 60" style="enable-background:new 0 0 60 60;" xml:space="preserve">
<style type="text/css">
	.st0{fill:none;stroke:#000000;stroke-width:3;stroke-linejoin:round;}
</style>
<g id="Page-1">
	<g id="Linkedin" transform="translate(1.000000, 1.000000)">
		<path id="Stroke-18" class="st0" d="M51,33.7V49h-9.9V34.7c0-3.7-1.5-6.3-4.9-6.3c-2.6,0-4,1.7-4.7,3.4c-0.3,0.6-0.2,1.4-0.2,2.3
			V49h-9.8c0,0,0.1-25.2,0-27.5h9.8v4.3c0.6-1.9,3.7-4.6,8.7-4.6C46.1,21.2,51,25.2,51,33.7L51,33.7z"/>
		<polygon id="Stroke-19" class="st0" points="7.5,49 16.2,49 16.2,21.5 7.5,21.5 		"/>
		<path id="Stroke-20" class="st0" d="M16.8,13.4c0,2.4-1.8,4.3-4.8,4.3h-0.1c-2.9,0-4.7-1.9-4.7-4.3C7.2,10.9,9.1,9,12,9
			C14.9,9,16.7,10.9,16.8,13.4L16.8,13.4z"/>
	</g>
</g>
</svg>
